<?xml version="1.0" encoding="UTF-8"?>
<svg id="Layer_1" xmlns="http://www.w3.org/2000/svg" version="1.1" viewBox="0 0 1408 633.7">
  <!-- Generator: Adobe Illustrator 30.1.0, SVG Export Plug-In . SVG Version: 2.1.1 Build 136)  -->
  <defs>
    <style>
      .st0 {
        fill: #fdfefd;
      }

      .st1 {
        fill: #1370f4;
      }

      .st2 {
        fill: #191a20;
      }
    </style>
  </defs>
  <rect class="st2" width="1408" height="633.7"/>
  <g>
    <g>
      <path class="st0" d="M227.2,222.8c56.3,0,112.6,0,169,0-4.4,4.3-8.6,8.8-12.7,13.4-6.1,6.4-12.3,12.5-18.2,19.1-35.1,0-70.2,0-105.3,0,0,10.8,0,21.6,0,32.3,24.8-.1,49.6-.1,74.4,0-10.2,10.7-20.3,21.6-30.7,32.1-14.6.4-29.2,0-43.7.3,0,14.3,0,28.6,0,42.9.2,1.6-.5,3-1.7,4-10.4,10.4-20.5,21.1-30.8,31.6-.3-58.5,0-117.1-.2-175.6Z"/>
      <path class="st0" d="M599.7,254.8c8.5,0,17-.3,25.4,0,.1,40.9,0,81.8.1,122.7-8.5,0-17,0-25.5,0,0-40.9-.2-81.8,0-122.8Z"/>
      <path class="st0" d="M500.8,259.5c28.6,0,57.2,0,85.8,0,0,7.3,0,14.5-.1,21.8-19.7-.3-39.5,0-59.2,0,0,10,0,20,0,30,17.5.1,35,0,52.6,0-.1,7.4,0,14.7,0,22.1-17.6,0-35.1,0-52.7,0,0,14.7,0,29.4,0,44.1-8.9,0-17.8,0-26.6,0,0-39.3,0-78.7,0-118Z"/>
      <path class="st0" d="M644,289c8.5.2,17,0,25.4,0-.1,15.2,0,30.5,0,45.7-.1,5.8.8,11.9,4.4,16.5,6.9,7.9,21.3,7,27-1.9,3.1-4.6,4.5-10.1,4.4-15.6.2-14.9,0-29.9,0-44.8,8.4.1,16.8,0,25.3,0-.1,29.5,0,59.1,0,88.6-8.1,0-16.1,0-24.2,0,0-3.4,0-6.7,0-10-4.7,5-10.5,9.1-17.3,10.5-12.3,2.7-26.6,0-35.4-9.6-6.8-7.4-9.5-17.8-9.6-27.6,0-17.2,0-34.5,0-51.7Z"/>
      <path class="st0" d="M741,289.1c9.5,0,18.9-.2,28.4,0,5.6,8.4,11.6,16.6,17.4,24.9,5.8-8.5,12.3-16.5,18.1-24.9,9.1-.1,18.2.2,27.4,0-10.1,14.4-20.6,28.5-30.8,42.9,10.8,15.2,21.7,30.4,32.6,45.6-9.6,0-19.2.1-28.9,0-6.1-8.9-12.2-17.9-18.5-26.6-5.8,8-11.4,16.2-16.8,24.5-.7.9-1.3,2.5-2.7,2.1-9.1,0-18.2-.1-27.3,0,10.7-15.1,21.7-30,32.6-45-10.4-14.6-21-29-31.4-43.5Z"/>
    </g>
    <path class="st1" d="M400.9,230.3c2.3-2.5,4.4-5.4,7.4-7.2,4.6,3.8,8.4,8.5,12.6,12.7,8.8,10.3,17.8,20.3,26.9,30.4,0,.9,0,1.8,0,2.7-13.1,12.6-25,26.5-38.1,39.2-12.3,13.3-24.9,26.2-37.4,39.2,7.5,10.1,17.5,18.1,25.7,27.5,8,9.3,17.5,17.2,25.3,26.6,2.7,3,5.7,5.8,8.6,8.7-5.2,1.5-10.5,0-15.7.2-7,.1-13.9-.3-20.9.4-2.8.3-5.5,0-8.2-.6-9.8-11.3-21.2-21-30.9-32.3-7.1-7.3-14.5-14.3-21.3-21.9-1.7-1.9-3.6-3.5-5.5-5.1-10,10.7-20.6,20.8-30.4,31.7-8.8,9.3-18.2,17.9-26.4,27.7-12.5.4-25-.4-37.4.4-2.5.1-4.9-.3-7.3-.6,8.6-8.6,16.5-17.9,25.4-26.1,9.6-11.1,20.7-20.8,30.3-31.9,8.6-8.7,17.3-17.4,25.5-26.5,2.7-2.4,4.8-6.4,8.9-6.3,5.3,0,10.7.9,16,.5,7.2,0,14.4.4,21.5-.7,7.5-9.1,16.2-17.1,24.4-25.5,5.3-5.4,10.1-11.2,15.5-16.5,2.9-3.2,6.5-5.9,9-9.4.7-1.8-1.2-3.1-2.1-4.4-2.6-2.8-5-5.9-8.2-8.1-5.6-.5-11.1-.1-16.7,0,3.8-3.5,6.9-7.8,10.5-11.5,4.3-4.5,8.8-8.6,12.8-13.3Z"/>
    <path class="st1" d="M1155.7,255.1c8.4-.2,16.7,0,25.1,0,0,40.8,0,81.5,0,122.2-8.4,0-16.8.1-25.2,0,0-40.7,0-81.5,0-122.2Z"/>
    <path class="st1" d="M844.9,272.7c0-4.5-.4-9,.6-13.4,17.9,0,35.8,0,53.6,0,9,.8,18.4,2,26.1,7.1,7.3,4.7,13.9,11.4,16.2,20,3.2,11.8,3,25.2-3.7,35.8-3.9,6.6-10,11.5-16.6,15.1,5.2,9.9,11.6,19.2,17.8,28.5,2.3,3.8,4.4,7.7,7.1,11.3-9.6-.1-19.2.5-28.8,0-6.3-12.1-15-22.7-21-34.9-3.9-1.2-8-.2-12-.4-4.2,0-8.3.2-12.5.2-.2,11.7,0,23.4-.1,35.1-8.9.1-17.9.1-26.8,0,.1-34.9,0-69.7,0-104.6ZM871.7,281.2c0,13-.2,25.9,0,38.9,8.1.2,16.3.2,24.5.1,5.7,0,11.4-2.1,15.6-6.1,5.2-5,6-12.9,4.4-19.6-1.9-7.9-10-13.4-18-13.4-8.8,0-17.7,0-26.5,0Z"/>
    <path class="st1" d="M965.1,301.6c7.9-9.9,20.9-13.7,33-14.2,10.7,0,22,2.8,30.1,10.2,8.2,7.1,13.7,17.3,14.6,28.2.3,4.8.1,9.5,0,14.3-21.6.1-43.1,0-64.7.1,2.2,8.5,9.1,16.1,18,17.6,10,2.1,20.3-1.7,28.1-7.9,3.7,3.8,7,8,10.8,11.6.8.9,2.3,2.2,1.4,3.6-3.5,4.9-9.4,7.4-14.5,10.2-8,3.6-17.2,4.5-25.8,3.4-12.6-.3-24.5-6.8-32.8-16.1-6.9-8-9.7-18.5-10.5-28.8-.2-11.7,3.9-23.6,12.2-32.1ZM984.9,312.4c-3.5,3.3-6.4,7.7-6.6,12.6,11.6,0,23.2,0,34.9.1,2.3,0,4.5-.3,6.7-.8-1.6-4.2-3.3-8.6-6.7-11.7-7.5-7.3-20.6-7-28.3-.2Z"/>
    <path class="st1" d="M1085.2,288.8c8.9-1.7,18.2-2,27,.7,11.2,3.4,20.4,12.1,25.4,22.6,4,8.8,4.5,18.5,4,28-21.7.1-43.4-.2-65,.2,2.1,8,8.5,14.5,16.5,16.7,10.5,3.5,21.9-.3,30.1-7.1,4,4.7,8.3,9,12.5,13.5,0,.4,0,1.2,0,1.6-6.5,5.7-13.9,11.2-22.5,12.9-14.9,3.2-31.3.6-43.8-8.3-15-11.5-21.1-33-15.3-50.9,4.3-14.5,16.5-26.4,31.3-29.8ZM1087.2,309.9c-5.4,3.1-10.3,8.6-9.9,15.1,13.5.2,27,0,40.6,0-.5-7.1-5.4-13.7-12-16.4-6-2.3-13.1-2.2-18.8,1.2Z"/>
  </g>
</svg>